<?xml version="1.0" encoding="UTF-8"?>
<svg width="18px" height="18px" viewBox="0 0 18 18" version="1.1" xmlns="http://www.w3.org/2000/svg" xmlns:xlink="http://www.w3.org/1999/xlink">
    <!-- Generator: Sketch 64 (93537) - https://sketch.com -->
    <title>ADD</title>
    <desc>Created with Sketch.</desc>
    <g id="Page-1" stroke="none" stroke-width="1" fill="none" fill-rule="evenodd">
        <g id="Clinician-User" transform="translate(-226.000000, -41.000000)" fill="#FFFFFF">
            <g id="ADD" transform="translate(226.000000, 41.000000)">
                <path d="M16.1214545,8.97381818 C16.1214545,12.9158182 12.9158182,16.1214545 8.97381818,16.1214545 C5.03345455,16.1214545 1.82618182,12.9158182 1.82618182,8.97381818 C1.82618182,5.03345455 5.03345455,1.82618182 8.97381818,1.82618182 C12.9158182,1.82618182 16.1214545,5.03345455 16.1214545,8.97381818 M8.97381818,-2.19024798e-12 C4.02545455,-2.19024798e-12 4.21481032e-14,4.02545455 4.21481032e-14,8.97381818 C4.21481032e-14,13.9221818 4.02545455,17.9492727 8.97381818,17.9492727 C13.9221818,17.9492727 17.9492727,13.9221818 17.9492727,8.97381818 C17.9492727,4.02545455 13.9221818,-2.19024798e-12 8.97381818,-2.19024798e-12" id="Fill-9"></path>
                <path d="M13.0053273,8.06056364 L9.88805455,8.06056364 L9.88805455,4.94329091 C9.88805455,4.43929091 9.47896364,4.0302 8.97496364,4.0302 C8.47096364,4.0302 8.06023636,4.43929091 8.06023636,4.94329091 L8.06023636,8.06056364 L4.9446,8.06056364 C4.4406,8.06056364 4.02987273,8.46965455 4.02987273,8.97365455 C4.02987273,9.47765455 4.4406,9.88838182 4.9446,9.88838182 L8.06023636,9.88838182 L8.06023636,13.0040182 C8.06023636,13.5080182 8.47096364,13.9187455 8.97496364,13.9187455 C9.47896364,13.9187455 9.88805455,13.5080182 9.88805455,13.0040182 L9.88805455,9.88838182 L13.0053273,9.88838182 C13.5093273,9.88838182 13.9184182,9.47765455 13.9184182,8.97365455 C13.9184182,8.46965455 13.5093273,8.06056364 13.0053273,8.06056364" id="Fill-12"></path>
            </g>
        </g>
    </g>
</svg>