<?xml version="1.0" encoding="UTF-8"?>
<svg width="25px" height="27px" viewBox="0 0 25 27" version="1.1" xmlns="http://www.w3.org/2000/svg" xmlns:xlink="http://www.w3.org/1999/xlink">
    <!-- Generator: sketchtool 64 (101010) - https://sketch.com -->
    <title>589933B5-4843-4EF2-9DAF-3F0C3510DCE0</title>
    <desc>Created with sketchtool.</desc>
    <g id="Page-1" stroke="none" stroke-width="1" fill="none" fill-rule="evenodd">
        <g id="Medical-Social-Form-1" transform="translate(-1197.000000, -127.000000)" fill="#8692A1" fill-rule="nonzero" stroke="#8692A1" stroke-width="0.3">
            <g id="behaviour" transform="translate(1198.000000, 128.000000)">
                <path d="M15.5257056,9.93719758 C15.0716734,9.93719758 14.7038306,10.3051411 14.7038306,10.7590726 L14.7038306,12.4028226 C14.7038306,12.856754 15.0716734,13.2246976 15.5257056,13.2246976 C15.9797379,13.2246976 16.3475806,12.856754 16.3475806,12.4028226 L16.3475806,10.7590726 C16.3475806,10.3051411 15.9795363,9.93719758 15.5257056,9.93719758 Z" id="Path"></path>
                <path d="M7.41663306,9.93719758 C6.96260081,9.93719758 6.59475806,10.3051411 6.59475806,10.7590726 L6.59475806,12.4028226 C6.59475806,12.856754 6.96260081,13.2246976 7.41663306,13.2246976 C7.87066532,13.2246976 8.23850806,12.856754 8.23850806,12.4028226 L8.23850806,10.7590726 C8.23850806,10.3051411 7.87046371,9.93719758 7.41663306,9.93719758 Z" id="Path"></path>
                <path d="M13.3206653,15.4424395 C12.8814516,15.3288306 12.4328629,15.5927419 12.3190524,16.0322581 C12.2186492,16.4201613 11.8698589,16.6910282 11.4709677,16.6910282 C11.0720766,16.6910282 10.7232863,16.4201613 10.6228831,16.0322581 C10.5091734,15.5929435 10.0611895,15.328629 9.62127016,15.4424395 C9.18175403,15.5561492 8.91774194,16.0046371 9.03145161,16.4440524 C9.31955645,17.5572581 10.3226815,18.3347782 11.4708669,18.3347782 C12.6190524,18.3347782 13.6221774,17.5572581 13.9102823,16.4440524 C14.0241935,16.0046371 13.7601815,15.55625 13.3206653,15.4424395 Z" id="Path"></path>
                <path d="M11.4711694,0 C5.18709677,0 0.0745967742,5.11239919 0.0745967742,11.3964718 L0.0745967742,13.5881048 C0.0745967742,19.8721774 5.18699597,24.9845766 11.4710685,24.9845766 C17.7551411,24.9845766 22.8675403,19.8721774 22.8675403,13.5881048 L22.8675403,11.3964718 C22.8675403,5.11239919 17.7551411,0 11.4711694,0 Z M21.2238911,13.5881048 C21.2238911,18.9658266 16.8487903,23.3408266 11.4711694,23.3408266 C6.09344758,23.3408266 1.71834677,18.9657258 1.71834677,13.5881048 L1.71834677,11.3964718 C1.71834677,6.01875 6.09344758,1.64364919 11.4711694,1.64364919 C16.8488911,1.64364919 21.2238911,6.01875 21.2238911,11.3964718 L21.2238911,13.5881048 Z" id="Shape"></path>
            </g>
        </g>
    </g>
</svg>