<?xml version="1.0" encoding="UTF-8"?>
<svg width="22px" height="27px" viewBox="0 0 22 27" version="1.1" xmlns="http://www.w3.org/2000/svg" xmlns:xlink="http://www.w3.org/1999/xlink">
    <!-- Generator: sketchtool 64 (101010) - https://sketch.com -->
    <title>5AFC1733-7778-4669-922B-B35D87A1F6FE</title>
    <desc>Created with sketchtool.</desc>
    <g id="Page-1" stroke="none" stroke-width="1" fill="none" fill-rule="evenodd">
        <g id="Medical-Social-Form-1" transform="translate(-722.000000, -128.000000)" fill="#8692A1" stroke="#8692A1" stroke-width="0.2">
            <path d="M734.525381,136.858723 C734.525381,134.906077 732.907919,133.317401 730.919662,133.317401 C728.931337,133.317401 727.313743,134.906011 727.313743,136.858723 C727.313743,138.074628 727.941856,139.18473 728.955745,139.830249 C729.319186,139.126739 730.063052,138.643635 730.919662,138.643635 C731.775804,138.643635 732.519402,139.126477 732.88291,139.829329 C733.893455,139.181644 734.525381,138.059917 734.525381,136.858723 L734.525381,136.858723 Z M731.782691,140.804798 C731.782691,140.33739 731.395512,139.957133 730.919662,139.957133 C730.443678,139.957133 730.056432,140.33739 730.056432,140.804798 C730.056432,141.272207 730.443678,141.65253 730.919662,141.65253 C731.395512,141.65253 731.782691,141.272207 731.782691,140.804798 L731.782691,140.804798 Z M735.862789,136.858723 C735.862789,138.707734 734.770594,140.419353 733.077904,141.227416 C732.877293,142.217531 731.985777,142.966093 730.919729,142.966093 C729.853614,142.966093 728.962098,142.217662 728.761353,141.227613 C727.061307,140.417973 725.976468,138.729735 725.976468,136.858788 C725.976468,134.181814 728.194024,132.003969 730.919796,132.003969 C733.6455,132.003969 735.862789,134.181749 735.862789,136.858723 L735.862789,136.858723 Z M741.662592,145.819142 L739.515049,145.819142 C739.145858,145.819142 738.846345,145.52505 738.846345,145.162393 L738.846345,143.05331 L737.494426,143.05331 L737.494426,145.162393 C737.494426,145.52505 737.195048,145.819142 736.825722,145.819142 L734.67818,145.819142 L734.67818,147.147022 L736.825722,147.147022 C737.195048,147.147022 737.494426,147.441115 737.494426,147.803771 L737.494426,149.91292 L738.846345,149.91292 L738.846345,147.803771 C738.846345,147.441115 739.145858,147.147022 739.515049,147.147022 L741.662592,147.147022 L741.662592,145.819142 Z M743,145.162393 L743,147.803771 C743,148.166428 742.700621,148.46052 742.331296,148.46052 L740.183753,148.46052 L740.183753,150.569669 C740.183753,150.932326 739.884374,151.226418 739.515049,151.226418 L736.825722,151.226418 C736.456464,151.226418 736.157018,150.932326 736.157018,150.569669 L736.157018,148.46052 L734.009476,148.46052 C733.640284,148.46052 733.340772,148.166428 733.340772,147.803771 L733.340772,145.162393 C733.340772,144.799736 733.640284,144.505644 734.009476,144.505644 L736.157018,144.505644 L736.157018,142.396561 C736.157018,142.033904 736.456464,141.739812 736.825722,141.739812 L739.515049,141.739812 C739.884374,141.739812 740.183753,142.033904 740.183753,142.396561 L740.183753,144.505644 L742.331296,144.505644 C742.700621,144.505644 743,144.799671 743,145.162393 L743,145.162393 Z M734.652234,151.53798 C733.549006,152.289301 732.258274,152.686437 730.919662,152.686437 C727.290204,152.686437 724.337408,149.786562 724.337408,146.222057 L724.337408,136.777877 C724.337408,133.213438 727.290137,130.313498 730.919662,130.313498 C734.548986,130.313498 737.501782,133.213372 737.501782,136.777877 L737.501782,139.668295 C737.501782,140.030951 737.801161,140.325043 738.170486,140.325043 C738.539678,140.325043 738.83919,140.030951 738.83919,139.668295 L738.83919,136.777877 C738.83919,132.48911 735.286433,129 730.919662,129 C726.552691,129 723,132.48911 723,136.777877 L723,146.222123 C723,150.51089 726.552691,154 730.919662,154 C732.531907,154 734.086243,153.521952 735.414356,152.617412 C735.717814,152.410733 735.79331,152.001513 735.582869,151.703481 C735.372428,151.405448 734.955692,151.331301 734.652234,151.53798 L734.652234,151.53798 Z M732.212467,135.349383 C731.80409,135.349383 731.473081,135.674473 731.473081,136.07555 C731.473081,136.476561 731.80409,136.801717 732.212467,136.801717 C732.620845,136.801717 732.95172,136.476561 732.95172,136.07555 C732.951786,135.674473 732.620845,135.349383 732.212467,135.349383 L732.212467,135.349383 Z M730.366109,136.07555 C730.366109,136.476561 730.035167,136.801717 729.626856,136.801717 C729.218479,136.801717 728.88747,136.476561 728.88747,136.07555 C728.88747,135.674539 729.218479,135.349383 729.626856,135.349383 C730.035167,135.349383 730.366109,135.674473 730.366109,136.07555 L730.366109,136.07555 Z" id="Fill-1"></path>
        </g>
    </g>
</svg>