<?xml version="1.0" encoding="UTF-8"?>
<svg width="30px" height="32px" viewBox="0 0 30 32" version="1.1" xmlns="http://www.w3.org/2000/svg" xmlns:xlink="http://www.w3.org/1999/xlink">
    <!-- Generator: Sketch 64 (93537) - https://sketch.com -->
    <title>Clinician User</title>
    <desc>Created with Sketch.</desc>
    <g id="Page-1" stroke="none" stroke-width="1" fill="none" fill-rule="evenodd">
        <g id="Patient-Management-V2" transform="translate(-34.000000, -436.000000)" fill="#FFFFFF" stroke="#FFFFFF" stroke-width="0.8">
            <g id="Clinician-User" transform="translate(34.000000, 437.000000)">
                <path d="M22.2888119,22.77697 C22.2863281,22.1582448 21.8130208,21.6381798 21.2522135,21.6377491 C20.6779948,21.6373188 20.1976563,22.175322 20.2079427,22.807465 C20.2179036,23.4236071 20.6994792,23.9350618 21.2621745,23.9270972 C21.8241536,23.9192761 22.291276,23.3959105 22.2888119,22.77697 L22.2888119,22.77697 Z M14.4563802,28.493308 C14.4639323,28.432318 14.4742839,28.3874007 14.4742839,28.3424834 C14.4759966,25.1443133 14.4785156,21.9461433 14.4702474,18.7480449 C14.469987,18.6315182 14.3880208,18.4794021 14.3009766,18.4047073 C13.7026042,17.8912436 13.0947266,17.3909107 12.4839193,16.8951699 C12.4047526,16.8308793 12.28125,16.7669475 12.195638,16.7879711 C11.2780599,17.0138492 10.3632161,17.2534321 9.45045573,17.5016254 C9.37942708,17.5209987 9.27851563,17.6340095 9.27766927,17.7047578 C9.26621094,18.6686145 9.26998698,19.6327582 9.26998698,20.5980499 C9.89440104,20.7430625 10.4014974,21.0505954 10.7901693,21.560902 C11.5808594,22.5987359 11.8500651,23.8337467 11.8698568,25.1529954 C11.8744141,25.4552186 11.7110026,25.6706926 11.4419922,25.6909269 C11.0322266,25.7218524 10.6167969,25.7240767 10.2079427,25.6854737 C9.92096354,25.6584228 9.77929688,25.4176201 9.7952474,25.1004723 C9.81113281,24.7838919 9.96809896,24.591529 10.2645182,24.5700032 C10.4240234,24.5584509 10.5848307,24.5679941 10.7767578,24.5679941 C10.6624349,23.6729485 10.4858724,22.8569745 9.91484375,22.2222484 C9.31751302,21.5581036 8.33020833,21.50515 7.6952474,22.1104574 C7.02929688,22.745327 6.84915365,23.6199231 6.71914063,24.5654827 C6.90175781,24.5654827 7.04134115,24.5596707 7.18040365,24.5666308 C7.50683594,24.5830622 7.69759115,24.7856206 7.70481771,25.1151817 C7.71204427,25.4459625 7.5296224,25.6825318 7.21074219,25.7010441 C6.85371094,25.7217806 6.49440104,25.7206326 6.13723958,25.7029096 C5.79811198,25.6861195 5.6235026,25.4794711 5.6265625,25.1018356 C5.62897135,24.8048504 5.64505208,24.5039187 5.69199219,24.2119562 C5.96210938,22.5332972 6.51861979,21.0876199 8.20384115,20.5856366 L8.20384115,18.0455123 C6.12141927,19.1446232 4.54967448,20.7783649 3.48111979,22.985771 C2.64889323,24.7049704 2.16770833,26.5374676 2.03450521,28.493308 L14.4563802,28.493308 Z M21.7710286,18.0823933 C21.7710286,18.7299632 21.7932943,19.3730844 21.7628906,20.0131203 C21.7440104,20.4112053 21.830599,20.6253877 22.1892578,20.8140978 C23.1490234,21.31931 23.5572266,22.5154307 23.2083333,23.5989712 C22.859375,24.6828705 21.8585938,25.30382 20.823763,25.0783724 C19.83125,24.8622527 19.0995443,23.8437921 19.1722005,22.7100963 C19.2410807,21.6344487 19.7859375,20.937154 20.7164714,20.5899418 L20.7164714,17.567351 C19.7683594,17.1377665 18.7783203,16.8912235 17.7682943,16.7353762 C17.679362,16.7215997 17.5635417,16.7924915 17.4830729,16.8580737 C16.9079427,17.3264766 16.3440104,17.8116697 15.7646484,18.2734713 C15.5774089,18.4227173 15.5132813,18.5840178 15.5139274,18.8373056 C15.5221354,21.9274158 15.5193359,25.0176695 15.5193359,28.1079232 L15.5193359,28.487209 L28.0044271,28.487209 C27.8561849,24.1817482 24.7397786,18.978013 21.7710286,18.0823933 L21.7710286,18.0823933 Z M15.0021484,29.6593822 C10.5650391,29.6593822 6.12792969,29.6593822 1.69082031,29.6593822 C1.05976563,29.6593822 0.892578125,29.4964135 0.947135417,28.8191379 C1.2671875,24.8433099 2.55403646,21.3691065 5.36875,18.7180522 C6.94244792,17.2357809 8.79309896,16.3626199 10.7989583,15.8644396 C11.3057943,15.7385132 11.8160156,15.6194752 12.3304036,15.5457132 C12.5102214,15.5199539 12.7417969,15.5864689 12.8904948,15.7026368 C13.5088542,16.1861796 14.1117839,16.6948358 14.7048828,17.2157619 C14.9142578,17.3996645 15.0551432,17.4310205 15.2806641,17.2291797 C15.8692057,16.7024416 16.4746094,16.1967272 17.0943359,15.7154088 C17.251888,15.5929984 17.4986328,15.516438 17.6863281,15.5482246 C19.7820964,15.9034731 21.7904297,16.550756 23.5778646,17.8554389 C26.2177083,19.7824347 27.8022135,22.5302836 28.5915365,25.8530884 C28.8257161,26.839045 28.9289063,27.8662594 29.0463542,28.8809171 C29.1142578,29.4679993 28.9159505,29.6569965 28.3785156,29.6570682 C23.9197266,29.6577857 19.4609375,29.6574987 15.0021484,29.6574987 L15.0021484,29.6593822 Z" id="Fill-1"></path>
                <path d="M20.2066146,8.12544142 C20.2058984,6.13358104 19.7016016,4.53959046 18.7810937,3.29187935 C16.9659245,0.831400803 13.9471094,0.520064989 11.8418359,2.57621597 C9.2553125,5.10227667 9.09001302,9.91747 11.4957422,12.6589329 C13.5259505,14.9724615 16.4860417,14.9779147 18.5010156,12.6491027 C19.6710677,11.2967759 20.1781641,9.64437848 20.2066146,8.12544142 M21.2472193,8.23364479 C21.1941797,10.2319629 20.4585677,12.3122946 18.7970443,13.918268 C16.4771875,16.160546 13.2228255,16.0631055 10.9850651,13.7178621 C8.07699219,10.6700861 7.99704427,5.21887512 10.8142318,2.07064507 C13.4859766,-0.91506468 17.6117578,-0.506790703 19.861888,2.96590595 C20.769375,4.36637897 21.2525781,6.06247392 21.2472193,8.23364479" id="Fill-4"></path>
            </g>
        </g>
    </g>
</svg>