<?xml version="1.0" encoding="UTF-8"?>
<svg width="20px" height="20px" viewBox="0 0 20 20" version="1.1" xmlns="http://www.w3.org/2000/svg" xmlns:xlink="http://www.w3.org/1999/xlink">
    <!-- Generator: Sketch 64 (93537) - https://sketch.com -->
    <title>checked</title>
    <desc>Created with Sketch.</desc>
    <g id="Page-1" stroke="none" stroke-width="1" fill="none" fill-rule="evenodd">
        <g id="Medical-Social-Form-1" transform="translate(-905.000000, -126.000000)" fill="#0078BF" fill-rule="nonzero" stroke="#0078BF" stroke-width="0.2">
            <g id="checked" transform="translate(906.000000, 127.000000)">
                <path d="M17.4853125,2.46076172 C17.2205156,2.19550781 16.7908711,2.19505078 16.5260742,2.45963672 L8.38764844,10.576582 L5.45132812,7.38745313 C5.19760547,7.11203906 4.76862891,7.09417969 4.49275781,7.34786719 C4.21709766,7.60158984 4.19944922,8.03077734 4.45317188,8.3064375 L7.86775781,12.0147539 C7.99280859,12.150668 8.16781641,12.2295937 8.35235156,12.2334258 C8.35730859,12.2336367 8.36208984,12.2336367 8.36683594,12.2336367 C8.54616797,12.2336367 8.71867969,12.1624102 8.84576953,12.0357773 L17.4839766,3.42021094 C17.7494414,3.15566016 17.7498984,2.72601563 17.4853125,2.46076172 Z" id="Path"></path>
                <path d="M17.3215898,8.32158984 C16.9468945,8.32158984 16.6432148,8.62526953 16.6432148,9 C16.6432148,13.2146367 13.2146367,16.6432148 9,16.6432148 C4.78560937,16.6432148 1.35678516,13.2146367 1.35678516,9 C1.35678516,4.78560937 4.78560937,1.35678516 9,1.35678516 C9.37469531,1.35678516 9.67841016,1.05310547 9.67841016,0.678410156 C9.67841016,0.303679688 9.37469531,0 9,0 C4.03734375,0 0,4.03734375 0,9 C0,13.9624453 4.03734375,18 9,18 C13.9624453,18 18,13.9624453 18,9 C18,8.62530469 17.6963203,8.32158984 17.3215898,8.32158984 Z" id="Path"></path>
            </g>
        </g>
    </g>
</svg>