<?xml version="1.0" encoding="UTF-8"?>
<svg width="27px" height="27px" viewBox="0 0 27 27" version="1.1" xmlns="http://www.w3.org/2000/svg" xmlns:xlink="http://www.w3.org/1999/xlink">
    <!-- Generator: sketchtool 64 (101010) - https://sketch.com -->
    <title>26EDD89E-2990-4A9E-8F1D-B4ADDF086B3C</title>
    <desc>Created with sketchtool.</desc>
    <g id="Page-1" stroke="none" stroke-width="1" fill="none" fill-rule="evenodd">
        <g id="Medical-Social-Form-1" transform="translate(-1062.000000, -128.000000)" fill="#8692A1" fill-rule="nonzero" stroke="#8692A1" stroke-width="0.8">
            <g id="energy" transform="translate(1063.000000, 129.000000)">
                <path d="M15.5683105,6.52773437 C15.6820801,6.19121094 15.6324707,5.83344727 15.4286621,5.53857422 C15.2072754,5.21816406 14.8343262,5.0277832 14.4292969,5.0277832 C14.4228027,5.0277832 14.4163574,5.0277832 14.4099121,5.02797852 C14.1339355,5.03691406 13.858252,5.17055664 13.590625,5.42524414 C11.6496582,7.27197266 9.72856445,9.08110352 7.79643555,10.9115723 C7.50913086,11.1837891 7.36704102,11.5498047 7.40654297,11.9157715 C7.44560547,12.2771484 7.65849609,12.5994141 7.990625,12.8 C9.00361328,13.4116699 10.0302246,13.9869141 11.0463867,14.5693848 C10.5719727,15.6799805 10.1438965,16.7233398 9.70244141,17.7875488 C7.75664062,16.7562988 6.51855469,14.7210938 6.51855469,12.5 C6.51855469,11.1234863 6.99741211,9.77978516 7.86699219,8.71635742 C8.72475586,7.66733398 9.92226562,6.93408203 11.238916,6.65161133 C11.4366699,6.60917969 11.5625977,6.41450195 11.520166,6.21674805 C11.4777832,6.01899414 11.2832031,5.89306641 11.0853027,5.93549805 C9.60683594,6.25263672 8.2625,7.07558594 7.3,8.25273438 C6.3237793,9.44658203 5.78613281,10.9549805 5.78613281,12.5 C5.78613281,15.0200684 7.20625,17.3268066 9.43134766,18.471875 C9.25058594,19.0118652 9.49711914,19.5976563 10.0219238,19.8517578 C10.4731445,20.0702148 10.948291,20.0083984 11.4086426,19.5728027 C13.3240723,17.7603516 15.2714844,15.9191895 17.2036621,14.0862793 C17.4941406,13.8107422 17.6357422,13.4429199 17.5921387,13.0771973 C17.5479004,12.7059082 17.3188477,12.3758301 16.9636719,12.1716309 C15.9522949,11.5900879 14.9582031,11.0116699 13.9540039,10.4310547 C14.4053711,9.36865234 14.8633301,8.30195313 15.2996094,7.21337891 C17.2442383,8.24511719 18.4814453,10.2797363 18.4814453,12.5 C18.4814453,13.8708984 18.0060547,15.2103516 17.1428223,16.271582 C16.2916016,17.3181152 15.1017578,18.0532227 13.7924805,18.3415039 C13.5949707,18.3850098 13.4700684,18.5803711 13.5135742,18.7779297 C13.557373,18.9769043 13.7564941,19.0994141 13.95,19.0568359 C15.4201172,18.7331543 16.7558105,17.9081055 17.7110352,16.7337891 C18.680127,15.542334 19.2138672,14.0387207 19.2138672,12.5 C19.2138672,9.97983398 17.7936035,7.67294922 15.5683105,6.52773438 L15.5683105,6.52773437 Z M14.8682617,6.31147461 C14.4423828,7.41103516 13.9709961,8.51938477 13.5150879,9.59121094 C13.4080078,9.84301758 13.3009277,10.0947266 13.1943848,10.3464844 C13.1135742,10.5375488 13.1267578,10.7991211 13.4061523,10.9604004 C14.4755859,11.5776367 15.5226562,12.1876953 16.598584,12.8064941 C16.7534668,12.8955566 16.847998,13.0224609 16.8648926,13.1638184 C16.8810547,13.2995605 16.8223633,13.4384277 16.6996094,13.5548828 C14.7685547,15.3869141 12.819043,17.230127 10.9052734,19.0407715 C10.6311035,19.3001465 10.4703613,19.255127 10.3411133,19.1925293 C10.1429687,19.0966309 10.0547852,18.8833984 10.1313477,18.6855469 C10.6618652,17.3144043 11.2130371,16.0572266 11.8070312,14.6508789 C11.8459961,14.5585938 11.945752,14.2416992 11.5927246,14.0385254 C10.5209961,13.4217773 9.43574219,12.8171387 8.36923828,12.172998 C8.23251953,12.0904297 8.14926758,11.9711426 8.13476562,11.8371582 C8.11977539,11.6984375 8.17851562,11.5585449 8.30019531,11.4432617 C10.2327148,9.61225586 12.1536621,7.8034668 14.0955078,5.95585937 C14.2252441,5.83242187 14.3407715,5.76484375 14.4298828,5.76020508 C14.5963379,5.76020508 14.7405762,5.83110352 14.8261719,5.95498047 C14.8692383,6.01733398 14.9320801,6.14663086 14.8682617,6.31147461 Z M23.8226074,9.41855469 L22.1498047,9.41855469 C21.963916,9.41855469 21.7950195,9.2984375 21.7295898,9.11967773 C21.6362305,8.86464844 21.5310059,8.6105957 21.4167969,8.36455078 C21.3364746,8.19160156 21.3708984,7.98701172 21.5023926,7.85551758 L22.6852539,6.67270508 C23.1442871,6.21362305 23.1442871,5.46665039 22.6852539,5.00761719 L19.9924805,2.31484375 C19.5334473,1.85581055 18.7864746,1.85581055 18.3273926,2.31484375 L17.1445312,3.49760742 C17.0130371,3.62915039 16.8083984,3.66342773 16.6354492,3.58320312 C16.3893555,3.46899414 16.1353027,3.3637207 15.8803711,3.27041016 C15.7016113,3.20498047 15.5814941,3.03608398 15.5814941,2.85019531 L15.5814941,1.17739258 C15.5814453,0.528173828 15.0532715,-1.38777878e-15 14.4040527,-1.38777878e-15 L10.5959473,-1.38777878e-15 C9.94672852,-1.38777878e-15 9.41855469,0.528173828 9.41855469,1.17739258 L9.41855469,2.85019531 C9.41855469,3.03608398 9.2984375,3.20498047 9.11967773,3.27041016 C8.86474609,3.3637207 8.61069336,3.46894531 8.36459961,3.58320312 C8.19165039,3.66347656 7.98701172,3.62910156 7.85551758,3.49760742 L6.67270508,2.31474609 C6.21362305,1.85571289 5.46665039,1.85571289 5.00761719,2.31474609 L2.31484375,5.00751953 C1.85581055,5.46655273 1.85581055,6.21352539 2.31484375,6.67260742 L3.49770508,7.85541992 C3.62919922,7.98691406 3.66357422,8.19150391 3.58330078,8.36450195 C3.4690918,8.61054687 3.36386719,8.86459961 3.27050781,9.11962891 C3.20507812,9.29838867 3.03618164,9.41850586 2.85029297,9.41850586 L1.17739258,9.41850586 C0.528173828,9.41855469 0,9.94672852 0,10.5959473 L0,14.4040527 C0,15.0532715 0.528173828,15.5814453 1.17739258,15.5814453 L2.85019531,15.5814453 C3.03608398,15.5814453 3.20498047,15.7015625 3.27041016,15.8803223 C3.36376953,16.1353516 3.46899414,16.3894043 3.58320312,16.6354492 C3.66352539,16.8084473 3.62910156,17.0129883 3.49760742,17.1445312 L2.31474609,18.3273437 C1.85571289,18.7864258 1.85571289,19.5333984 2.31474609,19.9924316 L5.00751953,22.6852051 C5.46655273,23.1442383 6.21352539,23.1442383 6.67260742,22.6852051 L7.85541992,21.5023437 C7.98691406,21.3708496 8.19150391,21.3365234 8.36450195,21.416748 C8.61054687,21.530957 8.86459961,21.6361816 9.11962891,21.729541 C9.29838867,21.7949707 9.41850586,21.9638672 9.41850586,22.1497559 L9.41850586,23.8225586 C9.41850586,24.4717773 9.94667969,24.9999512 10.5958984,24.9999512 L14.4040039,24.9999512 C15.0532227,24.9999512 15.5813965,24.4717773 15.5813965,23.8225586 L15.5813965,22.1497559 C15.5813965,21.9638672 15.7015137,21.7949707 15.8802734,21.729541 C16.1353027,21.6361816 16.3893555,21.530957 16.6354004,21.416748 C16.8083496,21.3364258 17.0129395,21.3708496 17.1444336,21.5023437 L18.3272461,22.6852051 C18.7863281,23.1442383 19.5333008,23.1442383 19.992334,22.6852051 L22.6851074,19.9924316 C23.1441406,19.5333984 23.1441406,18.7864258 22.6851074,18.3273437 L21.5022461,17.1445312 C21.370752,17.0130371 21.336377,16.8084473 21.4166504,16.6354492 C21.5308594,16.3894043 21.636084,16.1353516 21.7294434,15.8803223 C21.794873,15.7015625 21.9637695,15.5814453 22.1496582,15.5814453 L23.8224609,15.5814453 C24.4716797,15.5814453 24.9998535,15.0532715 24.9998535,14.4040527 L24.9998535,10.5959473 C24.9998535,9.94672852 24.4718262,9.41855469 23.8226074,9.41855469 Z M24.2675781,14.4040527 C24.2675781,14.6494141 24.0679687,14.8490234 23.8226074,14.8490234 L22.1498047,14.8490234 C21.6577637,14.8490234 21.2124512,15.1623047 21.0417969,15.6285645 C20.9554199,15.864502 20.8581055,16.0995117 20.7524902,16.3270508 C20.5432617,16.7777344 20.6365234,17.3144043 20.9845215,17.6624023 L22.167334,18.8452148 C22.3408203,19.0187012 22.3408691,19.3010254 22.167334,19.4745117 L19.4745605,22.1672852 C19.3010254,22.3408203 19.0187988,22.3407715 18.8452637,22.1672852 L17.6624512,20.9844238 C17.314502,20.6364258 16.7779297,20.5431641 16.3270996,20.7523926 C16.0995117,20.8580078 15.864502,20.9553711 15.6285645,21.0416992 C15.1623047,21.2123535 14.8490234,21.657666 14.8490234,22.149707 L14.8490234,23.8225098 C14.8490234,24.0678711 14.6494141,24.2674805 14.4040527,24.2674805 L10.5959473,24.2674805 C10.3505859,24.2674805 10.1509766,24.0678711 10.1509766,23.8225098 L10.1509766,22.149707 C10.1509766,21.657666 9.83769531,21.2123535 9.37143555,21.0416992 C9.13549805,20.9553223 8.90048828,20.8580078 8.67294922,20.7523926 C8.51254883,20.6779297 8.34130859,20.6417969 8.1715332,20.6417969 C7.86425781,20.6417969 7.56176758,20.7602539 7.33759766,20.9844238 L6.15478516,22.1672363 C5.98129883,22.3407227 5.69897461,22.3407715 5.52548828,22.1672363 L2.83271484,19.4744629 C2.65922852,19.3009766 2.65922852,19.0186523 2.83271484,18.845166 L4.01557617,17.6623535 C4.36357422,17.3143555 4.45683594,16.7777344 4.24760742,16.327002 C4.14199219,16.0994141 4.04462891,15.8644043 3.95830078,15.6284668 C3.78764648,15.162207 3.34233398,14.8489258 2.85029297,14.8489258 L1.17739258,14.8489258 C0.93203125,14.8489258 0.732421875,14.6493164 0.732421875,14.4039551 L0.732421875,10.5958496 C0.732421875,10.3504883 0.93203125,10.1508789 1.17739258,10.1508789 L2.85019531,10.1508789 C3.34223633,10.1508789 3.78754883,9.83759766 3.95820312,9.37133789 C4.04458008,9.13540039 4.14189453,8.90039062 4.24750977,8.67285156 C4.45673828,8.22216797 4.36347656,7.68549805 4.01547852,7.3375 L2.83266602,6.1546875 C2.65917969,5.98120117 2.65913086,5.69887695 2.83266602,5.52539062 L5.52543945,2.83261719 C5.69897461,2.65913086 5.98125,2.65917969 6.15473633,2.83261719 L7.33754883,4.01547852 C7.68554688,4.36342773 8.22216797,4.45673828 8.67290039,4.24746094 C8.90053711,4.14179687 9.13554687,4.04448242 9.37138672,3.9581543 C9.83764648,3.7875 10.1509277,3.3421875 10.1509277,2.85014648 L10.1509277,1.17739258 C10.1509277,0.93203125 10.3505371,0.732421875 10.5958984,0.732421875 L14.4040039,0.732421875 C14.6493652,0.732421875 14.8489746,0.93203125 14.8489746,1.17739258 L14.8489746,2.85019531 C14.8489746,3.34223633 15.1622559,3.78754883 15.6285156,3.95820313 C15.8643555,4.04453125 16.0993652,4.14189453 16.327002,4.24750977 C16.7777344,4.45668945 17.3143555,4.36347656 17.6623535,4.01547852 L18.845166,2.83266602 C19.0186523,2.65917969 19.3009766,2.65913086 19.4744629,2.83266602 L22.1672363,5.52543945 C22.3407227,5.69892578 22.3407227,5.98125 22.1672363,6.15473633 L20.984375,7.33754883 C20.636377,7.68554688 20.5431152,8.22216797 20.7523437,8.67290039 C20.857959,8.90048828 20.9553223,9.13549805 21.0416504,9.37143555 C21.2123047,9.83769531 21.6576172,10.1509766 22.1496582,10.1509766 L23.8224609,10.1509766 C24.0678223,10.1509766 24.2675781,10.3505859 24.2675781,10.5959473 L24.2675781,14.4040527 L24.2675781,14.4040527 Z" id="Shape"></path>
            </g>
        </g>
    </g>
</svg>