<?xml version="1.0" encoding="UTF-8"?>
<svg width="23px" height="27px" viewBox="0 0 23 27" version="1.1" xmlns="http://www.w3.org/2000/svg" xmlns:xlink="http://www.w3.org/1999/xlink">
    <!-- Generator: sketchtool 64 (101010) - https://sketch.com -->
    <title>AFAD182A-4185-4791-828F-D2989080217F</title>
    <desc>Created with sketchtool.</desc>
    <g id="Page-1" stroke="none" stroke-width="1" fill="none" fill-rule="evenodd">
        <g id="Medical-Social-Form-1" transform="translate(-1561.000000, -128.000000)" fill="#8692A1" fill-rule="nonzero" stroke="#8692A1" stroke-width="0.6">
            <g id="stethoscope" transform="translate(1562.000000, 129.000000)">
                <path d="M19.1440808,19.3609331 L19.1440808,15.71539 C19.1440808,14.3031337 17.9951253,13.1542479 16.5829387,13.1542479 L16.5417827,13.1542479 C15.1295961,13.1542479 13.9806407,14.3032033 13.9806407,15.71539 L13.9806407,20.9230501 C13.9806407,22.5858635 12.6277855,23.938649 10.9649721,23.938649 L10.8935237,23.938649 C9.23071031,23.938649 7.87785515,22.5858635 7.87785515,20.9230501 L7.87785515,14.1759749 C10.9666435,13.9103064 13.3990947,11.3116992 13.3990947,8.15529248 L13.3990947,3.27437326 C14.0699164,3.05424791 14.5557799,2.42249304 14.5557799,1.679039 C14.5557799,0.753272981 13.8026462,1.73182422e-15 12.8768106,1.73182422e-15 C11.9509749,1.73182422e-15 11.1978412,0.753272981 11.1978412,1.679039 C11.1978412,2.42249304 11.6837744,3.05424791 12.3545265,3.27437326 L12.3545265,8.15536212 C12.3545265,10.9117688 10.1119777,13.1543175 7.35557103,13.1543175 L7.24401114,13.1543175 C4.48760446,13.1543175 2.24512535,10.9117688 2.24512535,8.15536212 L2.24512535,3.27437326 C2.91594708,3.05424791 3.40181058,2.42249304 3.40181058,1.679039 C3.40188022,0.753203343 2.64867688,1.73182422e-15 1.72284123,1.73182422e-15 C0.797005571,1.73182422e-15 0.0438718663,0.753203343 0.0438718663,1.67896936 C0.0438718663,2.4224234 0.529805014,3.05417827 1.2005571,3.27430362 L1.2005571,8.15529248 C1.2005571,11.3495822 3.69178273,13.9726323 6.83328691,14.1845404 L6.83328691,20.9230501 C6.83328691,23.1618384 8.65466574,24.9832173 10.8935237,24.9832173 L10.9649721,24.9832173 C13.2037604,24.9832173 15.0252089,23.1618384 15.0252089,20.9230501 L15.0252089,15.71539 C15.0252089,14.8791086 15.705571,14.1988162 16.5417827,14.1988162 L16.5829387,14.1988162 C17.4192201,14.1988162 18.0995125,14.8791783 18.0995125,15.71539 L18.0995125,19.3609331 C16.7846797,19.6068245 15.7861421,20.7624652 15.7861421,22.1475627 C15.7861421,23.7111421 17.0582173,24.9832173 18.6217967,24.9832173 C20.185376,24.9832173 21.4575209,23.7111421 21.4575209,22.1475627 C21.4575209,20.7624652 20.4589833,19.6068942 19.1440808,19.3609331 Z M12.8768106,1.04456825 C13.2266017,1.04456825 13.5112117,1.32917827 13.5112117,1.67896936 C13.5112117,2.02876045 13.2266017,2.31337047 12.8768106,2.31337047 C12.5270195,2.31337047 12.2424095,2.02883008 12.2424095,1.67896936 C12.2424095,1.32910864 12.5270195,1.04456825 12.8768106,1.04456825 Z M1.72284123,1.04456825 C2.07263231,1.04456825 2.35724234,1.32917827 2.35724234,1.67896936 C2.35724234,2.02876045 2.07263231,2.31337047 1.72284123,2.31337047 C1.37305014,2.31337047 1.08844011,2.02883008 1.08844011,1.67896936 C1.08844011,1.32910864 1.37305014,1.04456825 1.72284123,1.04456825 Z M18.6217967,23.9387187 C17.6341922,23.9387187 16.8307103,23.1352368 16.8307103,22.1476323 C16.8307103,21.1600279 17.6341922,20.356546 18.6217967,20.356546 C19.6094708,20.356546 20.4129526,21.1600279 20.4129526,22.1476323 C20.4129526,23.1352368 19.6094708,23.9387187 18.6217967,23.9387187 Z" id="Shape"></path>
            </g>
        </g>
    </g>
</svg>