<?xml version="1.0" encoding="UTF-8"?>
<svg width="22px" height="24px" viewBox="0 0 22 24" version="1.1" xmlns="http://www.w3.org/2000/svg" xmlns:xlink="http://www.w3.org/1999/xlink">
    <!-- Generator: sketchtool 64 (101010) - https://sketch.com -->
    <title>AE803498-EFFE-4971-B0D0-EF402A7FC605</title>
    <desc>Created with sketchtool.</desc>
    <g id="Page-1" stroke="none" stroke-width="1" fill="none" fill-rule="evenodd">
        <g id="Medical-Social-Form-1" transform="translate(-617.000000, -129.000000)" fill="#8692A1">
            <g id="Parent-Missing" transform="translate(617.000000, 129.000000)">
                <g id="Group-5" transform="translate(0.000000, 7.771739)">
                    <path d="M16.40397,16.1413043 C16.232755,16.0880978 16.05428,16.0516304 15.89214,15.9786957 C15.046955,15.5978804 14.584735,14.94625 14.562955,14.0261957 C14.526655,12.4939674 14.28647,11.0083696 13.61008,9.61423913 C13.48787,9.36255435 13.34025,9.12222826 13.199285,8.8801087 C12.92159,8.39945652 13.048035,7.84826087 13.502995,7.57505435 C13.959165,7.30065217 14.51516,7.43934783 14.814635,7.91043478 C15.64046,9.21070652 16.097235,10.6401087 16.304145,12.1502174 C16.38461,12.7348913 16.40639,13.327337 16.44632,13.9167935 C16.466285,14.1965761 16.53344,14.2719022 16.819605,14.2725 C17.15054,14.2736957 17.481475,14.276087 17.811805,14.2707065 C18.15726,14.2647283 18.240145,14.1774457 18.248615,13.8414674 C18.294595,11.9427717 18.652755,10.1116304 19.58748,8.43652174 C19.859125,7.94929348 19.97105,7.48179348 19.955925,6.94076087 C19.92991,6.05418478 19.951085,5.16641304 19.94806,4.27923913 C19.94322,2.85820652 18.96433,1.89391304 17.522615,1.90048913 C17.059185,1.90288043 16.58668,1.89032609 16.135955,1.97581522 C15.15283,2.16173913 14.42441,2.72788043 13.94162,3.59472826 C13.077075,5.14788043 12.214345,6.70163043 11.351615,8.25538043 C11.317735,8.31695652 11.283855,8.37853261 11.24937,8.4401087 C10.85854,9.13836957 10.222685,9.24179348 9.612845,8.70793478 C8.99393,8.16630435 8.371385,7.6288587 7.754285,7.08483696 C7.20313,6.59880435 6.566065,6.27298913 5.83099,6.22695652 C5.1425,6.18391304 4.441305,6.16717391 3.758865,6.24788043 C2.71645,6.37043478 1.922085,7.31201087 1.89728,8.35103261 C1.884575,8.89505435 1.88881,9.44086957 1.897885,9.9848913 C1.8997,10.0739674 1.947495,10.1803804 2.009205,10.247337 C2.980835,11.2965217 3.52836,12.5202717 3.593095,13.9478804 C3.60338,14.1852174 3.68929,14.2701087 3.92645,14.2719022 C4.304575,14.2754891 4.6827,14.2748913 5.060825,14.2707065 C5.295565,14.2677174 5.37966,14.179837 5.391155,13.9430978 C5.4692,12.3379348 6.140145,11.0083696 7.31808,9.91853261 C7.777275,9.49407609 8.36957,9.4988587 8.74346,9.91673913 C9.11493,10.3316304 9.048985,10.8834239 8.591,11.2977174 C7.789375,12.0246739 7.33018,12.921413 7.28541,14.0016848 C7.240035,15.0789674 6.591475,15.863913 5.52002,16.1024457 C5.491585,16.1090217 5.46557,16.1281522 5.438345,16.1413043 L3.54772,16.1413043 C3.326895,16.063587 3.09397,16.0103804 2.888875,15.9045652 C2.161665,15.5297283 1.74845,14.9283152 1.71094,14.117663 C1.658305,12.96625 1.21,12.0121196 0.3388,11.251087 C0.145805,11.0830978 0.00847,10.8780435 0.009075,10.6275543 C0.01089,9.71048913 -0.033275,8.78625 0.057475,7.8763587 C0.25047,5.95673913 1.975325,4.39342391 3.93492,4.33842391 C4.78918,4.31451087 5.654935,4.3336413 6.500725,4.44543478 C7.420325,4.5673913 8.22558,5.01277174 8.929195,5.61836957 C9.31458,5.94956522 9.696335,6.28494565 10.09503,6.63228261 C10.555435,5.80309783 11.00495,4.99244565 11.45507,4.18298913 C11.76241,3.63119565 12.0516,3.06804348 12.38314,2.53119565 C13.375945,0.929021739 14.83581,0.0950543478 16.734905,0.0334782609 C17.394355,0.0119565217 18.055015,-0.00657608696 18.70781,0.160815217 C20.505265,0.622336957 21.81872,2.25201087 21.836265,4.08853261 C21.848365,5.41152174 21.84534,6.7351087 21.83203,8.05809783 C21.830215,8.25 21.776975,8.47298913 21.668075,8.62722826 C20.95599,9.63815217 20.551245,10.7680435 20.341915,11.9654891 C20.228175,12.6147283 20.16949,13.2771196 20.145895,13.9359239 C20.10536,15.0741848 19.422315,15.8944022 18.28431,16.0988587 C18.23954,16.1072283 18.196585,16.1269565 18.153025,16.1413043 L16.40397,16.1413043 Z" id="Fill-3"></path>
                </g>
                <g id="Group-8" transform="translate(13.915000, 0.000000)">
                    <path d="M3.366946,4.4828587 C4.095971,4.49182609 4.700366,3.91193478 4.709441,3.19573913 C4.718516,2.47476087 4.129246,1.87454348 3.407481,1.86916304 C2.674826,1.86438043 2.077691,2.43709783 2.065591,3.15688043 C2.052281,3.87367391 2.642156,4.4738913 3.366946,4.4828587 M6.60067575,3.18079348 C6.598251,4.93003261 5.152906,6.3528587 3.380861,6.3516638 C1.612446,6.34986957 0.171336,4.92106522 0.173149287,3.17063043 C0.174966,1.4213913 1.620311,-0.0020326087 3.392356,-0.000240823379 C5.162586,0.00215217391 6.603696,1.4303587 6.60067575,3.18079348" id="Fill-6"></path>
                </g>
                <path d="M5.626258,7.99711957 C5.631098,7.35146739 5.102328,6.82179348 4.450743,6.81939386 C3.807628,6.81701087 3.275228,7.33054348 3.264943,7.96304348 C3.254053,8.60869565 3.777983,9.14494565 4.427753,9.15331522 C5.078128,9.16168478 5.621418,8.63798913 5.626258,7.99711957 M1.3737128,7.98815217 C1.373108,6.31244565 2.757953,4.94701087 4.455583,4.95059078 C6.141113,4.95418478 7.516883,6.31782609 7.5174882,7.98456522 C7.518093,9.66027174 6.132038,11.0257065 4.435013,11.0221266 C2.750693,11.0185326 1.374318,9.65429348 1.3737128,7.98815217" id="Fill-9"></path>
            </g>
        </g>
    </g>
</svg>