<?xml version="1.0" encoding="UTF-8"?>
<svg width="25px" height="24px" viewBox="0 0 25 24" version="1.1" xmlns="http://www.w3.org/2000/svg" xmlns:xlink="http://www.w3.org/1999/xlink">
    <!-- Generator: sketchtool 64 (101010) - https://sketch.com -->
    <title>6F74A21F-CCBA-46BB-B03C-1C5D102930A5</title>
    <desc>Created with sketchtool.</desc>
    <defs>
        <polygon id="path-1" points="3.89026644e-05 0.4703125 24.6774194 0.4703125 24.6774194 23.4372656 3.89026644e-05 23.4372656"></polygon>
    </defs>
    <g id="Page-1" stroke="none" stroke-width="1" fill="none" fill-rule="evenodd">
        <g id="Medical-Social-Form-1" transform="translate(-936.000000, -129.000000)">
            <g id="Group-6" transform="translate(936.000000, 129.000000)">
                <path d="M13.4958065,2.444375 L13.4675806,2.4396875 C13.0780645,2.3834375 12.72,2.6396875 12.6562903,3.01234375 C12.5587097,2.6428125 12.1683871,2.4178125 11.7877419,2.51390625 C10.703871,2.781875 9.80306452,3.44046875 9.25064516,4.3678125 C9.15548387,4.52796875 9.13048387,4.71390625 9.17887097,4.8928125 C9.22887097,5.07171875 9.3466129,5.2209375 9.51274194,5.313125 C9.62080645,5.3740625 9.74419355,5.40609375 9.86919355,5.40609375 C10.1240323,5.40609375 10.361129,5.2740625 10.4885484,5.06 C10.8482258,4.45765625 11.4345161,4.02953125 12.1409677,3.8553125 C12.3264516,3.80921875 12.4812903,3.69671875 12.578871,3.53734375 C12.6264516,3.4615625 12.6546774,3.37796875 12.6691935,3.2928125 C12.7377419,3.5521875 12.9579032,3.76234375 13.2458065,3.80765625 C13.2877419,3.81390625 13.328871,3.81703125 13.3691935,3.81703125 C13.7143548,3.81703125 14.0103226,3.57796875 14.0708065,3.24828125 C14.1409677,2.87328125 13.8829032,2.51234375 13.4958065,2.444375" id="Fill-1" fill="#7C899D"></path>
                <g id="Group-5" transform="translate(0.000000, 0.311172)">
                    <mask id="mask-2" fill="white">
                        <use xlink:href="#path-1"></use>
                    </mask>
                    <g id="Clip-4"></g>
                    <path d="M13.3729839,13.4497656 L5.8891129,9.26304687 L9.05604839,3.94820312 C9.63185484,2.98101562 10.5649194,2.28960937 11.6802419,1.99976562 C12.7995968,1.70992187 13.9616935,1.85835937 14.9592742,2.41617188 C15.953629,2.97242187 16.6673387,3.87554687 16.9665323,4.95914062 C17.2665323,6.04273437 17.1157258,7.17085937 16.5415323,8.13414062 L13.3729839,13.4497656 Z M11.4294355,13.9607031 C9.91733871,14.4310156 9.15040323,15.0864844 9.14879032,15.9130469 L9.14879032,20.4528906 C7.84475806,22.0607031 5.41733871,22.5200781 3.5875,21.4966406 C2.59314516,20.9396094 1.87943548,20.0364844 1.58024194,18.9528906 C1.28024194,17.8692969 1.43104839,16.7419531 2.00524194,15.7778906 L5.17379032,10.4622656 L11.4294355,13.9607031 Z M10.5770161,17.5521094 C10.9052419,17.7013281 11.2939516,17.8380469 11.7358871,17.9599219 C12.1108871,18.0638281 12.5221774,18.1560156 12.9415323,18.2302344 C12.9737903,18.2388281 13.0076613,18.2442969 13.0237903,18.2458594 C14.1915323,18.4513281 15.5358871,18.5591406 16.9133065,18.5591406 C18.8552419,18.5591406 20.6939516,18.3466406 22.0915323,17.9607031 C22.5318548,17.8380469 22.9197581,17.7013281 23.2487903,17.5521094 L23.2487903,20.7685156 C23.2125,20.8255469 22.953629,21.1622656 21.7020161,21.5091406 C20.4318548,21.8599219 18.7310484,22.0536719 16.9133065,22.0536719 C15.0947581,22.0536719 13.3931452,21.8599219 12.1237903,21.5091406 C10.8100806,21.1450781 10.5899194,20.7927344 10.5778226,20.7927344 L10.5770161,20.7927344 L10.5770161,17.5521094 Z M13.0366935,16.8396094 C12.7133065,16.7771094 12.4084677,16.7067969 12.1278226,16.6286719 C11.003629,16.3177344 10.6778226,16.0161719 10.5971774,15.9153906 C10.6778226,15.8153906 11.003629,15.5138281 12.1278226,15.2021094 C13.3995968,14.8505469 15.0995968,14.6567969 16.9133065,14.6567969 C17.3052419,14.6567969 17.6939516,14.6661719 18.0778226,14.6841406 L13.0366935,16.8396094 Z M23.2294355,15.9161719 C23.1479839,16.0161719 22.8221774,16.3185156 21.6979839,16.6286719 C20.4254032,16.9810156 18.7262097,17.1755469 16.9133065,17.1755469 C16.5544355,17.1755469 16.1979839,17.1669531 15.8447581,17.1521094 L20.8625,15.0067969 C21.1560484,15.0653906 21.4366935,15.1302344 21.6979839,15.2028906 C22.8229839,15.5138281 23.1479839,15.8153906 23.2294355,15.9161719 L23.2294355,15.9161719 Z M22.0907258,13.8716406 C21.7415323,13.7747656 21.3560484,13.6872656 20.9633065,13.6153906 C20.9310484,13.6067969 20.8955645,13.6005469 20.8770161,13.5989844 C19.1754032,13.2919531 17.0471774,13.1950781 15.0907258,13.3372656 L17.778629,8.82632812 C18.5439516,7.54273437 18.7455645,6.04195312 18.3471774,4.60054687 C17.9479839,3.15992187 16.9987903,1.95835937 15.6745968,1.21695312 C14.3455645,0.474765625 12.7971774,0.277109375 11.3108871,0.663046875 C9.82620968,1.04898437 8.58508065,1.96929687 7.81895161,3.25601562 L0.768145161,15.0857031 C0.00362903226,16.3700781 -0.198790323,17.8708594 0.199596774,19.3114844 C0.597983871,20.7513281 1.54798387,21.9536719 2.87217742,22.6950781 C4.10846774,23.3872656 5.60120968,23.6067969 6.99637097,23.3021094 C8.02459677,23.0802344 8.95927419,22.5982031 9.7141129,21.9021094 C10.1423387,22.2732031 10.8197581,22.5872656 11.7318548,22.8396094 C13.1245968,23.2255469 14.9649194,23.4372656 16.9133065,23.4372656 C18.8616935,23.4372656 20.7012097,23.2255469 22.0939516,22.8396094 C23.8084677,22.3646094 24.6778226,21.6763281 24.6778226,20.7942969 L24.6778226,15.9153906 C24.6778226,15.0341406 23.8068548,14.3466406 22.0907258,13.8716406 L22.0907258,13.8716406 Z" id="Fill-3" fill="#8692A1" mask="url(#mask-2)"></path>
                </g>
            </g>
        </g>
    </g>
</svg>