<?xml version="1.0" encoding="UTF-8"?>
<svg width="43px" height="45px" viewBox="0 0 43 45" version="1.1" xmlns="http://www.w3.org/2000/svg" xmlns:xlink="http://www.w3.org/1999/xlink">
    <!-- Generator: Sketch 64 (93537) - https://sketch.com -->
    <title>Notification</title>
    <desc>Created with Sketch.</desc>
    <g id="Page-1" stroke="none" stroke-width="1" fill="none" fill-rule="evenodd">
        <g id="Clinician-User" transform="translate(-1654.000000, -36.000000)" fill="#414F63">
            <g id="Group" transform="translate(1654.000000, 33.000000)">
                <path d="M26.8922376,41.4554768 C26.8862376,41.9284768 26.6732376,42.4734768 26.2742376,43.0214768 C25.3172376,44.3404768 23.5252376,45.4004768 21.9182376,45.5984768 C20.6252376,45.7554768 19.1382376,45.2684768 17.9432376,44.2894768 C16.9662376,43.4884768 16.3182376,42.4744768 16.1222376,41.4554768 L26.8922376,41.4554768 Z M19.3502376,7.18947679 C19.4232376,6.66447679 19.6982376,6.20947679 20.1592376,5.86147679 C20.8982376,5.30147679 21.6412376,5.22347679 22.4342376,5.62047679 C23.1112376,5.95847679 23.5032376,6.47447679 23.6272376,7.18947679 L19.3502376,7.18947679 Z M6.65023757,25.3894768 C6.64623757,24.9364768 6.64223757,24.4844768 6.64623757,24.0324768 C6.66323757,22.2224768 6.89223757,20.7754768 7.37023757,19.4784768 C9.41123757,13.9324768 13.4682376,10.6364768 19.4272376,9.68147679 C20.1872376,9.55947679 20.9442376,9.50047679 21.6952376,9.50047679 C28.4992376,9.50047679 34.6862376,14.3494768 36.0522376,21.1474768 C36.3342376,22.5534768 36.3322376,24.0084768 36.3312376,25.4164768 C36.3312376,26.1014768 36.3302376,26.7864768 36.3612376,27.4704768 C36.4082376,28.5364768 36.5342376,29.4684768 36.7472376,30.3184768 C37.2192376,32.2024768 38.2372376,33.8834768 39.8552376,35.4574768 C40.5432376,36.1284768 40.7182376,36.9444768 40.3462376,37.7564768 C39.9462376,38.6344768 39.2672376,39.0614768 38.2752376,39.0614768 L16.7042376,39.0634768 C12.7292376,39.0634768 8.75423757,39.0654768 4.77923757,39.0614768 C4.01723757,39.0614768 3.34023757,38.7674768 2.92323757,38.2544768 C2.53523757,37.7774768 2.39623757,37.1524768 2.53123757,36.4924768 C2.59723757,36.1674768 2.79223757,35.8104768 3.02923757,35.5834768 C5.14623757,33.5444768 6.33823757,31.2014768 6.57323757,28.6164768 C6.67023757,27.5404768 6.66023757,26.4474768 6.65023757,25.3894768 L6.65023757,25.3894768 Z M41.5912376,33.7364768 C39.7052376,31.9614768 38.7802376,29.7814768 38.7642376,27.0724768 C38.7622376,26.6814768 38.7642376,26.2894768 38.7672376,25.8964768 C38.7772376,24.3964768 38.7872376,22.8454768 38.5262376,21.3474768 C37.4362376,15.0774768 33.7302376,10.6374768 27.5112376,8.15147679 C27.1402376,8.00347679 26.7562376,7.88347679 26.3662376,7.76247679 L26.0902376,7.67447679 L26.0902376,7.36547679 C26.0752376,6.09047679 25.4652376,4.87647679 24.4152376,4.03547679 C23.3132376,3.15347679 21.9122376,2.81347679 20.5722376,3.09847679 C18.3812376,3.56547679 16.9112376,5.35247679 16.9132376,7.54547679 C16.9132376,7.73847679 16.9132376,7.73847679 16.7032376,7.80447679 C15.9042376,8.05347679 15.0782376,8.30947679 14.3092376,8.67947679 C7.93823757,11.7404768 4.54623757,16.7314768 4.22823757,23.5144768 C4.19323757,24.2574768 4.20423757,25.0094768 4.21423757,25.7354768 C4.22223757,26.3124768 4.23023757,26.8894768 4.21623757,27.4654768 C4.15823757,29.9134768 3.23823757,31.9964768 1.48123757,33.6574768 C0.0362375661,35.0224768 -0.375762434,36.8274768 0.352237566,38.6094768 C1.08623757,40.4054768 2.68023757,41.4374768 4.72323757,41.4394768 C6.71923757,41.4414768 8.71623757,41.4394768 10.7132376,41.4384768 L13.5752376,41.4364768 C14.5372376,46.0184768 18.5052376,47.8684768 20.9932376,47.9894768 C21.1422376,47.9964768 21.2912376,47.9994768 21.4382376,47.9994768 C23.0522376,47.9994768 24.5382376,47.5624768 25.8582376,46.6984768 C27.7642376,45.4504768 28.9532376,43.6814768 29.3942376,41.4364768 L38.3002376,41.4354768 C40.2572376,41.4354768 41.8702376,40.4024768 42.6142376,38.6744768 C43.3762376,36.9034768 42.9952376,35.0574768 41.5912376,33.7364768 L41.5912376,33.7364768 Z" id="Notification"></path>
            </g>
        </g>
    </g>
</svg>