<?xml version="1.0" encoding="UTF-8"?>
<svg width="21px" height="25px" viewBox="0 0 21 25" version="1.1" xmlns="http://www.w3.org/2000/svg" xmlns:xlink="http://www.w3.org/1999/xlink">
    <!-- Generator: sketchtool 64 (101010) - https://sketch.com -->
    <title>F0225F81-C1DC-42B8-97F1-265C9B5D53AD</title>
    <desc>Created with sketchtool.</desc>
    <g id="Page-1" stroke="none" stroke-width="1" fill="none" fill-rule="evenodd">
        <g id="Medical-Social-Form-2" transform="translate(-330.000000, -129.000000)" fill="#0078BF">
            <g id="total-patient-2" transform="translate(330.000000, 129.000000)">
                <path d="M9.98186316,24.9925625 C9.42844737,24.9331875 9.03360526,24.4588125 9.09665263,23.9325625 C9.15014737,23.4900625 9.51633158,23.1406875 9.98186316,23.0906875 C11.0256474,23.1025625 12.0828053,23.0694375 13.1335947,22.9806875 C14.0672053,22.9213125 14.9957211,22.7963125 15.9108632,22.6056875 C17.4870474,22.2750625 18.4696947,21.8031875 18.7804737,21.1769375 C19.0218368,20.6975625 19.0218368,20.1394375 18.7804737,19.6594375 C18.4709684,19.0206875 17.4838632,18.5269375 15.9452526,18.2288125 C15.0161,18.0281875 14.0723,17.9013125 13.1234053,17.8431875 C11.3478895,17.6894375 9.56027368,17.6894375 7.78603158,17.8431875 C6.84732632,17.9025625 5.91498947,18.0263125 4.99602632,18.2181875 C3.42111579,18.5469375 2.44865789,19.0206875 2.12705263,19.6469375 C2.01242105,19.8863125 1.95383158,20.1456875 1.95446842,20.4069375 C1.95446842,20.6725625 2.01242105,20.9350625 2.12705263,21.1775625 C2.67155263,21.8900625 3.50390526,22.3569375 4.42350526,22.4650625 C4.78968947,22.5344375 5.08327368,22.7913125 5.18898947,23.1313125 C5.29215789,23.4738125 5.19217368,23.8425625 4.92597368,24.0913125 C4.65977368,24.3375625 4.27002632,24.4244375 3.91721579,24.3125625 C2.43401053,24.0781875 1.13548947,23.2331875 0.371915789,22.0025625 C-0.124184211,21.0025625 -0.124184211,19.8463125 0.371915789,18.8469375 C0.979463158,17.6038125 2.40153158,16.8025625 4.59481579,16.3725625 C5.6265,16.1575625 6.67283158,16.0188125 7.72807895,15.9556875 C9.61567895,15.7994375 11.5109211,15.7994375 13.3991579,15.9556875 C14.4302053,16.0206875 15.4542474,16.1644375 16.4623684,16.3844375 C18.6435526,16.8025625 20.0668947,17.6275625 20.6648895,18.8350625 C21.1399737,19.8419375 21.1278737,20.9950625 20.6311368,21.9913125 C20.0216789,23.2013125 18.5989737,24.0263125 16.3827632,24.4556875 C15.3778263,24.6706875 14.3569684,24.8094375 13.3284684,24.8744375 C12.3330842,24.9700625 11.3338789,25.0125625 10.3334,24.9969375 L9.98186316,24.9950625 L9.98186316,24.9925625 Z M10.5066211,13.3913125 L10.4938842,13.3913125 C6.60405263,13.3575625 3.47779474,10.3288125 3.51409474,6.6256875 C3.54020526,3.9488125 5.23866316,1.5431875 7.83315789,0.5069375 C10.4467579,-0.5261875 13.4577474,0.0494375 15.4497895,1.9650625 C17.4558421,3.8856875 18.0487421,6.7656875 16.9578316,9.2669375 C15.8879368,11.7606875 13.3392947,13.3913125 10.5072579,13.3913125 L10.5066211,13.3913125 Z M6.96132105,3.3094375 C4.99284211,5.1988125 5.00685263,8.2456875 6.99061579,10.1206875 C7.44786842,10.5500625 7.98408947,10.8919375 8.57444211,11.1325625 C10.4454842,11.8788125 12.6037421,11.4700625 14.0334526,10.1000625 C15.4701684,8.7281875 15.9013105,6.6663125 15.1230895,4.8750625 C14.3576053,3.0813125 12.5266842,1.9094375 10.4938842,1.91193351 L10.4856053,1.91193351 C9.16161053,1.9106875 7.89174737,2.4125625 6.96132105,3.3094375 L6.96132105,3.3094375 Z" id="Fill-1"></path>
            </g>
        </g>
    </g>
</svg>