<?xml version="1.0" encoding="UTF-8"?>
<svg width="21px" height="27px" viewBox="0 0 21 27" version="1.1" xmlns="http://www.w3.org/2000/svg" xmlns:xlink="http://www.w3.org/1999/xlink">
    <!-- Generator: sketchtool 64 (101010) - https://sketch.com -->
    <title>1C3DD583-AB0D-4427-877D-3D6CAA3BDD10</title>
    <desc>Created with sketchtool.</desc>
    <g id="Page-1" stroke="none" stroke-width="1" fill="none" fill-rule="evenodd">
        <g id="Medical-Social-Form-1" transform="translate(-1436.000000, -128.000000)" fill="#8692A1" fill-rule="nonzero" stroke="#8692A1" stroke-width="0.7">
            <g id="love" transform="translate(1437.000000, 129.000000)">
                <path d="M17.1858558,14.0988378 C16.9921684,14.0404528 16.7874299,14.1504258 16.729045,14.3443577 L15.9510681,16.9304584 C15.9407505,16.9646874 15.9355184,17.0003345 15.9355184,17.0360793 L15.9355184,24.5871002 C15.9355184,24.7896871 16.099671,24.9538397 16.3022579,24.9538397 C16.5048449,24.9538397 16.6689975,24.7896871 16.6689975,24.5871002 L16.6689975,17.0900634 L17.4314246,14.5556486 C17.4897606,14.3617167 17.3798366,14.1571738 17.1858558,14.0988378 L17.1858558,14.0988378 Z" id="Path"></path>
                <path d="M9.75972202,0 C8.55745195,0 7.3968435,0.246448983 6.31002304,0.732501144 C5.26378843,1.20041192 4.33647523,1.86636206 3.55380412,2.71186789 C2.771133,3.55737371 2.17857967,4.53324323 1.79272076,5.6124355 C1.39180107,6.73343609 1.23547222,7.9096432 1.32813509,9.10829477 L1.49512383,11.2699066 C1.49805775,11.3076563 1.4890115,11.3446237 1.46901197,11.3768479 L1.02398575,12.0928702 C0.380333371,13.128396 0.040145757,14.3202018 0.040145757,15.5394397 C0.040145757,15.9074995 0.339551932,16.2069057 0.707562854,16.2069057 L1.76641331,16.2069057 L2.33456623,19.5094198 C2.47099335,20.3023108 3.1539602,20.8800967 3.95853789,20.883324 L7.60539606,20.8975535 C7.98284441,20.8990205 8.28992767,21.2073262 8.28992767,21.5848234 L8.28992767,24.6332604 C8.28992767,24.8358474 8.4540803,25 8.65666723,25 C8.85925416,25 9.02340679,24.8358474 9.02340679,24.6332604 L9.02340679,21.5848234 C9.02340679,20.8044995 8.38860506,20.1672039 7.60828108,20.1640744 L3.96142291,20.1498449 C3.51356056,20.1480845 3.13337389,19.8264295 3.05748325,19.3850707 L2.43691102,15.7779671 C2.40664278,15.601981 2.25403022,15.4733776 2.07545251,15.4733776 L0.774016062,15.4733776 C0.785996221,14.4140871 1.08721164,13.3804683 1.64700291,12.4799516 L2.09202914,11.7639293 C2.1950096,11.598163 2.24151218,11.4077518 2.22645141,11.2132331 L2.05946266,9.05167018 C1.89178934,6.88174556 2.61367948,4.80717323 4.09212889,3.2100469 C5.57057829,1.61292058 7.58334279,0.733479116 9.75977092,0.733479116 C12.387142,0.733479116 14.7931491,1.94274169 16.3606918,4.05134745 C17.9282833,6.15985542 18.3932113,8.8121648 17.6363587,11.3281938 L17.1834598,12.833733 C17.1251237,13.0276649 17.2350478,13.2322078 17.4289797,13.2905438 C17.6226181,13.3487331 17.8274544,13.2389558 17.8857905,13.0450239 L18.3386894,11.5394846 C19.163071,8.79915777 18.656677,5.91032582 16.9493332,3.61375381 C15.2419894,1.3171818 12.6214641,0 9.75972202,0 Z" id="Path"></path>
                <path d="M10.1237233,11.8336587 C10.081426,11.8800635 10.0298868,11.8872026 10.0028948,11.8873004 C10.0027481,11.8873004 10.0025525,11.8873004 10.0023569,11.8873004 C9.97521819,11.8873004 9.92407024,11.8803079 9.88177295,11.8345877 L8.87607528,10.7464959 C8.7385235,10.5976975 8.5064996,10.5886023 8.35779894,10.7261052 C8.20904937,10.8636081 8.19990533,11.095632 8.33740822,11.2443815 L9.34315478,12.3325223 C9.51263736,12.5158431 9.75272952,12.6208285 10.002308,12.6208285 L10.0054375,12.6208285 C10.2561407,12.6198994 10.4968196,12.5131537 10.6657154,12.327828 L13.5685813,9.14271939 C14.4365805,8.19032121 14.4027915,6.73064886 13.4916638,5.81947221 L13.484818,5.8126264 C12.5464537,4.87426212 11.0194969,4.87426212 10.080937,5.8126264 L9.97541378,5.9181985 L9.86304478,5.80626958 C8.9246805,4.87171939 7.39928843,4.87318635 6.4626356,5.80969249 C5.54505322,6.72727486 5.51630084,8.19247274 6.39711146,9.14545771 L7.26359479,10.0827951 C7.40109768,10.2314958 7.63312157,10.2406398 7.78187113,10.1031858 C7.9306207,9.96563406 7.93976474,9.73361016 7.80226185,9.5849095 L6.93577852,8.64757209 C6.32337236,7.98499595 6.34337189,6.96629126 6.98135203,6.32836002 C7.63248589,5.67717726 8.69304779,5.67615039 9.34550191,6.32591509 L9.71718023,6.69607755 C9.86050205,6.83881259 10.0921837,6.83856809 10.2353588,6.69558856 L10.5996534,6.33124504 C11.2521564,5.67869312 12.313843,5.67874201 12.9661993,6.33124504 L12.9730451,6.33809084 C13.6065266,6.97152341 13.6300468,7.98646291 13.0265891,8.64859896 L10.1237233,11.8336587 Z" id="Path"></path>
            </g>
        </g>
    </g>
</svg>