<?xml version="1.0" encoding="UTF-8"?>
<svg width="25px" height="27px" viewBox="0 0 25 27" version="1.1" xmlns="http://www.w3.org/2000/svg" xmlns:xlink="http://www.w3.org/1999/xlink">
    <!-- Generator: sketchtool 64 (101010) - https://sketch.com -->
    <title>8F1F90EF-E011-43ED-8DA3-C2C4DB6B5FC1</title>
    <desc>Created with sketchtool.</desc>
    <g id="Page-1" stroke="none" stroke-width="1" fill="none" fill-rule="evenodd">
        <g id="Medical-Social-Form-1" transform="translate(-827.000000, -128.000000)" fill="#8692A1" fill-rule="nonzero" stroke="#8692A1" stroke-width="0.6">
            <g id="referral" transform="translate(828.000000, 129.000000)">
                <path d="M7.8933526,15.474422 L0.361271676,15.474422 C0.161705202,15.474422 -7.47846229e-13,15.3127168 -7.47846229e-13,15.1131503 C-7.47846229e-13,14.9135838 0.161705202,14.7518786 0.361271676,14.7518786 L7.8933526,14.7518786 C8.09291908,14.7518786 8.25462428,14.9135838 8.25462428,15.1131503 C8.25462428,15.3127168 8.09291908,15.474422 7.8933526,15.474422 Z" id="Path"></path>
                <path d="M6.63280347,18.2648844 L0.361271676,18.2648844 C0.161705202,18.2648844 -2.64677169e-13,18.1031792 -2.64677169e-13,17.9036127 L-2.64677169e-13,12.5119942 C-2.64677169e-13,10.4810694 1.58439306,8.8132948 3.58208092,8.67962428 C2.91286127,8.00722543 2.52369942,7.09017341 2.52369942,6.10708092 C2.52369942,4.09465318 4.16098266,2.45736994 6.1734104,2.45736994 C8.18598266,2.45736994 9.8232659,4.09465318 9.8232659,6.10708092 C9.8232659,7.48034682 9.06445087,8.72413295 7.84277457,9.35346821 C7.66517341,9.44479769 7.44754335,9.37485549 7.35606936,9.19768786 C7.26473988,9.02023121 7.33453757,8.80245665 7.51184971,8.71098266 C8.49190751,8.20621387 9.10072254,7.2083815 9.10072254,6.10693642 C9.10072254,4.49291908 7.78757225,3.17976879 6.1734104,3.17976879 C4.55924855,3.17976879 3.24624277,4.49291908 3.24624277,6.10708092 C3.24624277,7.20852601 3.8550578,8.20635838 4.83511561,8.71112717 C4.9833815,8.78742775 5.06011561,8.95534682 5.02080925,9.11748555 C4.98150289,9.27962428 4.83641618,9.39364162 4.66965318,9.39364162 L3.84104046,9.39364162 C2.12153179,9.39364162 0.722543353,10.7926301 0.722543353,12.5121387 L0.722543353,17.5424855 L6.63280347,17.5424855 C6.83236994,17.5424855 6.99407514,17.7041908 6.99407514,17.9037572 C6.99407514,18.1031792 6.83236994,18.2648844 6.63280347,18.2648844 L6.63280347,18.2648844 Z" id="Path"></path>
                <path d="M23.3381503,17.0226879 L7.92644509,17.0226879 C7.72687861,17.0226879 7.56517341,16.8609827 7.56517341,16.6614162 C7.56517341,16.4618497 7.72687861,16.3001445 7.92644509,16.3001445 L23.3381503,16.3001445 C23.5377168,16.3001445 23.699422,16.4618497 23.699422,16.6614162 C23.699422,16.8609827 23.5377168,17.0226879 23.3381503,17.0226879 Z" id="Path"></path>
                <path d="M18.7842486,8.23843931 C19.7721098,7.35563584 20.3533237,6.08786127 20.3533237,4.72109827 C20.3533237,2.11777457 18.2354046,1.20969901e-12 15.6322254,1.20969901e-12 C13.0289017,1.20969901e-12 10.9111272,2.11791908 10.9111272,4.72109827 C10.9111272,6.08786127 11.492341,7.35563584 12.4802023,8.23843931 C9.76459538,8.27052023 7.56517341,10.4895954 7.56517341,13.2127168 L7.56517341,20.3609827 C7.56517341,20.5605491 7.72687861,20.7222543 7.92644509,20.7222543 L11.7940751,20.7222543 C11.6111272,22.6956647 9.94682081,24.2460983 7.92644509,24.2460983 C6.63930636,24.2460983 5.46156069,23.6218208 4.74031792,22.5864162 L6.70216763,22.5864162 C6.8482659,22.5864162 6.9800578,22.4984104 7.03598266,22.3632948 C7.09190751,22.2283237 7.06098266,22.0729769 6.95765896,21.9696532 L4.39378613,19.4057803 C4.25274566,19.2645954 4.02384393,19.2645954 3.88294798,19.4057803 L1.31907514,21.9696532 C1.21575145,22.0729769 1.18482659,22.2283237 1.24075145,22.3632948 C1.2966763,22.4984104 1.4283237,22.5864162 1.57456647,22.5864162 L3.89407514,22.5864162 C4.70679191,24.0589595 6.23598266,24.9686416 7.92644509,24.9686416 C10.3453757,24.9686416 12.333526,23.0945087 12.5184971,20.7222543 L23.3381503,20.7222543 C23.5377168,20.7222543 23.699422,20.5605491 23.699422,20.3609827 L23.699422,13.2127168 C23.699422,10.4895954 21.5,8.27052023 18.7842486,8.23843931 Z M4.13843931,20.1721098 L5.8300578,21.8637283 L2.44682081,21.8637283 L4.13843931,20.1721098 Z M22.9768786,19.999711 L8.28771676,19.999711 L8.28771676,13.2127168 C8.28771676,10.8680636 10.1952312,8.96069364 12.5397399,8.96069364 L13.6384393,8.96069364 C13.8052023,8.96069364 13.950289,8.84653179 13.9895954,8.68453757 C14.0289017,8.52254335 13.9521676,8.35462428 13.8039017,8.27817919 C12.4651734,7.58872832 11.6336705,6.22557803 11.6336705,4.72109827 C11.6336705,2.51632948 13.4274566,0.722543353 15.6322254,0.722543353 C17.8369942,0.722543353 19.6307803,2.51632948 19.6307803,4.72109827 C19.6307803,6.22572254 18.7992775,7.58858382 17.4605491,8.27817919 C17.3124277,8.35462428 17.2355491,8.52254335 17.2748555,8.68453757 C17.3141618,8.8466763 17.4592486,8.96069364 17.6260116,8.96069364 L18.7245665,8.96069364 C21.0692197,8.96069364 22.9768786,10.8682081 22.9768786,13.2127168 L22.9768786,19.999711 L22.9768786,19.999711 Z" id="Shape"></path>
            </g>
        </g>
    </g>
</svg>