<?xml version="1.0" encoding="UTF-8"?>
<svg width="27px" height="27px" viewBox="0 0 27 27" version="1.1" xmlns="http://www.w3.org/2000/svg" xmlns:xlink="http://www.w3.org/1999/xlink">
    <!-- Generator: sketchtool 64 (101010) - https://sketch.com -->
    <title>315FB88E-CF49-444A-A7E4-27B4A412C148</title>
    <desc>Created with sketchtool.</desc>
    <g id="Page-1" stroke="none" stroke-width="1" fill="none" fill-rule="evenodd">
        <g id="Medical-Social-Form-1" transform="translate(-1312.000000, -128.000000)" fill="#8692A1" fill-rule="nonzero" stroke="#8692A1" stroke-width="0.7">
            <g id="therapy" transform="translate(1313.000000, 129.000000)">
                <path d="M1.25,25 L3.33333333,25 C3.68687243,24.9988911 4.02323338,24.8473772 4.25833333,24.5833333 L14.7083333,24.5833333 C15.3196754,24.5835375 15.919255,24.4152977 16.44125,24.0970833 L24.25,19.3433333 C24.9281739,18.930757 25.1882464,18.0746068 24.8541384,17.3545299 C24.5200303,16.6344529 23.6983542,16.2802226 22.9454167,16.5316667 C14.25875,19.4279167 15.2316667,19.1666667 14.5995833,19.1666667 C15.1045833,17.7658333 13.8416667,16.25 12.2633333,16.25 L10.0833333,16.25 C9.31467567,16.2490743 8.56905917,15.9874622 7.96833333,15.5079167 C7.21977671,14.9107059 6.29093217,14.5847878 5.33333333,14.5833333 L4.50666667,14.5833333 C4.33072725,14.0856871 3.8611606,13.7521881 3.33333333,13.75 L1.25,13.75 C0.559644062,13.75 -1.38777878e-15,14.3096441 -1.38777878e-15,15 L-1.38777878e-15,23.75 C-1.38777878e-15,24.4403559 0.559644062,25 1.25,25 L1.25,25 Z M7.44791667,16.15875 C8.19658504,16.7560496 9.12559154,17.081973 10.0833333,17.0833333 L12.2629167,17.0833333 C13.3683333,17.0833333 14.3279167,18.2804167 13.6670833,19.1666667 L11.1354167,19.1666667 C10.3126655,19.1658789 9.508224,19.4095172 8.82416667,19.8666667 L8.51875,20.07 C8.32729129,20.1977158 8.2756175,20.456458 8.40333333,20.6479167 C8.53104917,20.8393754 8.78979129,20.8910492 8.98125,20.7633333 C9.59455992,20.2766323 10.3524977,20.0080555 11.1354167,20 C15.0970833,20 15.0633333,20.0375 15.4979167,19.8933333 L23.2108333,17.3220833 C23.4557706,17.2402028 23.7257676,17.2946395 23.9198415,17.4650332 C24.1139154,17.635427 24.2028313,17.8961101 24.1533333,18.1495833 C24.1159544,18.3503108 23.9946855,18.5255443 23.82,18.63125 L16.0083333,23.3854167 C15.6166385,23.6238725 15.1669029,23.75 14.7083333,23.75 L4.58333333,23.75 L4.58333333,15.4166667 C5.53,15.4166667 6.42916667,15.34375 7.44791667,16.15875 L7.44791667,16.15875 Z M0.833333333,15 C0.833333333,14.7698814 1.01988135,14.5833333 1.25,14.5833333 L3.33333333,14.5833333 C3.56345198,14.5833333 3.75,14.7698814 3.75,15 L3.75,23.75 C3.75,23.9801186 3.56345198,24.1666667 3.33333333,24.1666667 L1.25,24.1666667 C1.01988135,24.1666667 0.833333333,23.9801186 0.833333333,23.75 L0.833333333,15 Z" id="Shape"></path>
                <path d="M15.8333333,1.68166667 L15.6745833,1.525 C13.601772,-0.502322425 10.2890614,-0.502322425 8.21625,1.525 C7.22627017,2.49657585 6.66853183,3.82540964 6.66853183,5.2125 C6.66853183,6.59959038 7.22627017,7.92842417 8.21625,8.9 L15.5416667,16.13 C15.7036848,16.2888095 15.9629819,16.2888095 16.125,16.13 L23.4520833,8.90125 C24.4426942,7.93001388 25.0008716,6.60105296 25.0008716,5.21375 C25.0008716,3.82644703 24.4426942,2.49748613 23.4520833,1.52625 C21.54375,-0.35875 18.2541667,-0.705 15.8333333,1.68166667 Z M22.8670833,8.30666667 L15.8333333,15.25 L8.79958333,8.30791667 C7.9678725,7.49288183 7.49919458,6.37740142 7.49919458,5.21291667 C7.49919458,4.04843193 7.9678725,2.93295151 8.79958333,2.11791667 C10.547544,0.406216892 13.3432893,0.406216892 15.09125,2.11791667 L15.5416667,2.56375 C15.7039363,2.7239257 15.9648137,2.7239257 16.1270833,2.56375 L16.57875,2.11791667 C18.3267107,0.406216892 21.122456,0.406216892 22.8704167,2.11791667 C23.7016888,2.9333993 24.1697661,4.04913215 24.1691397,5.21361692 C24.168512,6.37810171 23.6992332,7.49332979 22.8670833,8.30791667 L22.8670833,8.30666667 Z" id="Shape"></path>
            </g>
        </g>
    </g>
</svg>